<?xml version="1.0" encoding="iso-8859-1"?>
<!-- Generator: Adobe Illustrator 19.0.0, SVG Export Plug-In . SVG Version: 6.00 Build 0)  -->
<svg version="1.1" id="Capa_1" xmlns="http://www.w3.org/2000/svg" xmlns:xlink="http://www.w3.org/1999/xlink" x="0px" y="0px"
	 viewBox="0 0 512 512" style="enable-background:new 0 0 512 512;" xml:space="preserve">
<path style="fill:#5897D1;" d="M512,256c0,50.918-14.869,98.367-40.5,138.24C425.963,465.074,346.467,512,256,512
	S86.037,465.074,40.5,394.24C14.869,354.367,0,306.918,0,256s14.869-98.367,40.5-138.24c28.473-44.293,70.228-79.245,119.641-99.203
	C189.743,6.583,222.104,0,256,0s66.257,6.583,95.859,18.557c49.413,19.958,91.167,54.909,119.641,99.203
	C497.131,157.633,512,205.082,512,256z"/>
<path style="fill:#9FC5E6;" d="M470.319,214.319c0,42.628-12.448,82.352-33.906,115.732C398.29,389.352,331.737,428.638,256,428.638
	s-142.29-39.286-180.413-98.586c-21.458-33.381-33.906-73.105-33.906-115.733s12.448-82.352,33.906-115.732
	c23.837-37.081,58.793-66.343,100.162-83.051C200.531,5.511,227.623,0,256,0c28.377,0,55.469,5.511,80.251,15.536
	c41.368,16.708,76.324,45.969,100.162,83.051C457.871,131.969,470.319,171.691,470.319,214.319z"/>
<path style="fill:#F0F0F0;" d="M471.5,74.304V394.24C425.963,465.074,346.467,512,256,512c-45.589,0-88.388-11.912-125.45-32.81
	c-18.86-10.606-36.227-23.542-51.722-38.41C64.303,426.851,51.43,411.23,40.5,394.24V74.304c0-22.141,16.823-40.072,37.575-40.072
	h355.84C454.666,34.232,471.5,52.162,471.5,74.304z"/>
<rect x="40.5" y="141.343" style="fill:#D4D4D4;" width="431" height="36.223"/>
<path style="fill:#EF487D;" d="M471.5,71.816v80.311H40.5V71.816c0-20.762,16.823-37.585,37.575-37.585h355.84
	C454.666,34.231,471.5,51.054,471.5,71.816z"/>
<path style="fill:#FF668C;" d="M471.5,90.624v61.503H40.5V90.624c0-20.762,16.823-37.585,37.575-37.585h355.84
	C454.666,53.039,471.5,69.862,471.5,90.624z"/>
<path style="fill:#F2AE5A;" d="M171.363,22.988v39.643c0,9.613-5.904,17.847-14.284,21.274c-2.685,1.108-5.622,1.714-8.704,1.714
	c-12.695,0-22.988-10.292-22.988-22.988V22.988C125.388,10.292,135.68,0,148.376,0c3.082,0,6.019,0.606,8.704,1.714
	c2.853,1.16,5.413,2.873,7.555,5.016C168.793,10.898,171.363,16.645,171.363,22.988z"/>
<path style="fill:#F9DF73;" d="M171.363,22.988v39.643c0,9.613-5.904,17.847-14.284,21.274c-8.37-3.427-14.273-11.661-14.273-21.274
	V22.988c0-9.613,5.904-17.847,14.273-21.274c2.853,1.16,5.413,2.873,7.555,5.016C168.793,10.898,171.363,16.645,171.363,22.988z"/>
<path style="fill:#F2AE5A;" d="M386.612,22.988v39.643c0,9.613-5.904,17.847-14.284,21.274c-2.685,1.108-5.622,1.714-8.704,1.714
	c-12.695,0-22.988-10.292-22.988-22.988V22.988C340.637,10.292,350.929,0,363.624,0c3.082,0,6.019,0.606,8.704,1.714
	c2.853,1.16,5.413,2.873,7.555,5.016C384.042,10.898,386.612,16.645,386.612,22.988z"/>
<path style="fill:#F9DF73;" d="M386.612,22.988v39.643c0,9.613-5.904,17.847-14.284,21.274c-8.37-3.427-14.273-11.661-14.273-21.274
	V22.988c0-9.613,5.904-17.847,14.273-21.274c2.853,1.16,5.413,2.873,7.555,5.016C384.042,10.898,386.612,16.645,386.612,22.988z"/>
<g>
	<path style="fill:#484B7F;" d="M267.961,264.694h-23.922c-8.893,0-16.103-7.21-16.103-16.103v-23.922
		c0-8.893,7.21-16.103,16.103-16.103h23.922c8.893,0,16.103,7.21,16.103,16.103v23.922
		C284.064,257.484,276.854,264.694,267.961,264.694z"/>
	<path style="fill:#484B7F;" d="M342.759,264.694h-23.922c-8.893,0-16.103-7.21-16.103-16.103v-23.922
		c0-8.893,7.21-16.103,16.103-16.103h23.922c8.893,0,16.103,7.21,16.103,16.103v23.922
		C358.862,257.484,351.652,264.694,342.759,264.694z"/>
</g>
<path style="fill:#EF487D;" d="M417.557,264.694h-23.922c-8.893,0-16.103-7.21-16.103-16.103v-23.922
	c0-8.893,7.21-16.103,16.103-16.103h23.922c8.893,0,16.103,7.21,16.103,16.103v23.922
	C433.66,257.484,426.45,264.694,417.557,264.694z"/>
<g>
	<path style="fill:#484B7F;" d="M118.365,338.051H94.443c-8.893,0-16.103-7.21-16.103-16.103v-23.922
		c0-8.893,7.21-16.103,16.103-16.103h23.922c8.893,0,16.103,7.21,16.103,16.103v23.922
		C134.468,330.842,127.258,338.051,118.365,338.051z"/>
	<path style="fill:#484B7F;" d="M193.163,338.051h-23.922c-8.893,0-16.103-7.21-16.103-16.103v-23.922
		c0-8.893,7.21-16.103,16.103-16.103h23.922c8.893,0,16.103,7.21,16.103,16.103v23.922
		C209.266,330.842,202.056,338.051,193.163,338.051z"/>
	<path style="fill:#484B7F;" d="M267.961,338.051h-23.922c-8.893,0-16.103-7.21-16.103-16.103v-23.922
		c0-8.893,7.21-16.103,16.103-16.103h23.922c8.893,0,16.103,7.21,16.103,16.103v23.922
		C284.064,330.842,276.854,338.051,267.961,338.051z"/>
	<path style="fill:#484B7F;" d="M342.759,338.051h-23.922c-8.893,0-16.103-7.21-16.103-16.103v-23.922
		c0-8.893,7.21-16.103,16.103-16.103h23.922c8.893,0,16.103,7.21,16.103,16.103v23.922
		C358.862,330.842,351.652,338.051,342.759,338.051z"/>
</g>
<path style="fill:#EF487D;" d="M417.557,338.051h-23.922c-8.893,0-16.103-7.21-16.103-16.103v-23.922
	c0-8.893,7.21-16.103,16.103-16.103h23.922c8.893,0,16.103,7.21,16.103,16.103v23.922
	C433.66,330.842,426.45,338.051,417.557,338.051z"/>
<g>
	<path style="fill:#484B7F;" d="M118.365,411.409H94.443c-8.893,0-16.103-7.21-16.103-16.103v-23.922
		c0-8.893,7.21-16.103,16.103-16.103h23.922c8.893,0,16.103,7.21,16.103,16.103v23.922
		C134.468,404.199,127.258,411.409,118.365,411.409z"/>
	<path style="fill:#484B7F;" d="M193.163,411.409h-23.922c-8.893,0-16.103-7.21-16.103-16.103v-23.922
		c0-8.893,7.21-16.103,16.103-16.103h23.922c8.893,0,16.103,7.21,16.103,16.103v23.922
		C209.266,404.199,202.056,411.409,193.163,411.409z"/>
	<path style="fill:#484B7F;" d="M267.961,411.409h-23.922c-8.893,0-16.103-7.21-16.103-16.103v-23.922
		c0-8.893,7.21-16.103,16.103-16.103h23.922c8.893,0,16.103,7.21,16.103,16.103v23.922
		C284.064,404.199,276.854,411.409,267.961,411.409z"/>
	<path style="fill:#484B7F;" d="M342.759,411.409h-23.922c-8.893,0-16.103-7.21-16.103-16.103v-23.922
		c0-8.893,7.21-16.103,16.103-16.103h23.922c8.893,0,16.103,7.21,16.103,16.103v23.922
		C358.862,404.199,351.652,411.409,342.759,411.409z"/>
</g>
<path style="fill:#EF487D;" d="M417.557,411.409h-23.922c-8.893,0-16.103-7.21-16.103-16.103v-23.922
	c0-8.893,7.21-16.103,16.103-16.103h23.922c8.893,0,16.103,7.21,16.103,16.103v23.922
	C433.66,404.199,426.45,411.409,417.557,411.409z"/>
<g>
	<path style="fill:#484B7F;" d="M134.468,444.74v23.928c0,4.023-1.484,7.701-3.918,10.522c-18.86-10.606-36.227-23.542-51.722-38.41
		c1.766-6.98,8.088-12.142,15.621-12.142h23.918C127.258,428.638,134.468,435.848,134.468,444.74z"/>
	<path style="fill:#484B7F;" d="M193.163,484.767h-23.922c-8.893,0-16.103-7.21-16.103-16.103v-23.922
		c0-8.893,7.21-16.103,16.103-16.103h23.922c8.893,0,16.103,7.21,16.103,16.103v23.922
		C209.266,477.557,202.056,484.767,193.163,484.767z"/>
	<path style="fill:#484B7F;" d="M267.961,484.767h-23.922c-8.893,0-16.103-7.21-16.103-16.103v-23.922
		c0-8.893,7.21-16.103,16.103-16.103h23.922c8.893,0,16.103,7.21,16.103,16.103v23.922
		C284.064,477.557,276.854,484.767,267.961,484.767z"/>
</g>
<g>
</g>
<g>
</g>
<g>
</g>
<g>
</g>
<g>
</g>
<g>
</g>
<g>
</g>
<g>
</g>
<g>
</g>
<g>
</g>
<g>
</g>
<g>
</g>
<g>
</g>
<g>
</g>
<g>
</g>
</svg>
