<?xml version="1.0" encoding="iso-8859-1"?>
<!-- Generator: Adobe Illustrator 19.0.0, SVG Export Plug-In . SVG Version: 6.00 Build 0)  -->
<svg version="1.1" id="Capa_1" xmlns="http://www.w3.org/2000/svg" xmlns:xlink="http://www.w3.org/1999/xlink" x="0px" y="0px"
	 viewBox="0 0 512 512" style="enable-background:new 0 0 512 512;" xml:space="preserve">
<circle style="fill:#5897D1;" cx="256" cy="256" r="256"/>
<path style="fill:#9FC5E6;" d="M467.633,211.633c0,41.653-12.033,80.498-32.824,113.245C397.285,384.014,331.23,423.265,256,423.265
	s-141.285-39.252-178.808-98.388c-20.792-32.747-32.824-71.592-32.824-113.245S56.4,131.135,77.192,98.388
	c20.732-32.686,50.187-59.292,85.085-76.56C190.532,7.852,222.346,0,256,0C372.882,0,467.633,94.751,467.633,211.633z"/>
<path style="fill:#F0F0F0;" d="M472.294,138.668v254.318C426.904,464.52,347,512,256,512S85.096,464.52,39.706,392.986V45.066
	c0-10.303,8.349-18.662,18.651-18.662H360.03L472.294,138.668z"/>
<path style="fill:#D4D4D4;" d="M360.03,120.007V26.405l112.264,112.264h-93.602C368.389,138.668,360.03,130.309,360.03,120.007z"/>
<g>
	<path style="fill:#343A6E;" d="M237.544,105.816H105.887c-5.194,0-9.404-4.21-9.404-9.404l0,0c0-5.194,4.21-9.404,9.404-9.404
		h131.657c5.194,0,9.404,4.21,9.404,9.404l0,0C246.948,101.606,242.737,105.816,237.544,105.816z"/>
	<path style="fill:#343A6E;" d="M185.295,145.522h-79.409c-5.194,0-9.404-4.21-9.404-9.404l0,0c0-5.194,4.21-9.404,9.404-9.404
		h79.409c5.194,0,9.404,4.21,9.404,9.404l0,0C194.699,141.312,190.489,145.522,185.295,145.522z"/>
	<path style="fill:#343A6E;" d="M387.66,331.514c0,36.352-14.733,69.266-38.567,93.09v0.01
		c-23.824,23.824-56.738,38.557-93.09,38.557c-72.714,0-131.657-58.943-131.657-131.657s58.943-131.657,131.657-131.657
		c62.725,0,115.21,43.875,128.439,102.609C386.553,311.807,387.66,321.535,387.66,331.514z"/>
</g>
<path style="fill:#F9DF73;" d="M387.66,331.514c0,36.352-14.733,69.266-38.567,93.09l-93.09-93.09l128.439-29.048
	C386.553,311.807,387.66,321.535,387.66,331.514z"/>
<path style="fill:#EF487D;" d="M387.66,331.514H256.003V199.857C328.707,199.857,387.66,258.799,387.66,331.514z"/>
<g>
</g>
<g>
</g>
<g>
</g>
<g>
</g>
<g>
</g>
<g>
</g>
<g>
</g>
<g>
</g>
<g>
</g>
<g>
</g>
<g>
</g>
<g>
</g>
<g>
</g>
<g>
</g>
<g>
</g>
</svg>
