<?xml version="1.0" encoding="iso-8859-1"?>
<!-- Generator: Adobe Illustrator 19.0.0, SVG Export Plug-In . SVG Version: 6.00 Build 0)  -->
<svg version="1.1" id="Capa_1" xmlns="http://www.w3.org/2000/svg" xmlns:xlink="http://www.w3.org/1999/xlink" x="0px" y="0px"
	 viewBox="0 0 512 512" style="enable-background:new 0 0 512 512;" xml:space="preserve">
<circle style="fill:#D4D4D4;" cx="256" cy="256" r="256"/>
<circle style="fill:#F0F0F0;" cx="256" cy="220.285" r="220.285"/>
<g>
	<path style="fill:#484B7F;" d="M253.358,267.394c-1.522,0-3.032-0.662-4.066-1.938c-1.814-2.243-1.466-5.533,0.776-7.348
		l93.692-75.779c2.242-1.814,5.533-1.467,7.348,0.776c1.814,2.243,1.466,5.533-0.776,7.348l-93.692,75.779
		C255.674,267.013,254.512,267.394,253.358,267.394z"/>
	<path style="fill:#484B7F;" d="M269.858,263.732l-3.298-98.961c-0.156-4.681-6.852-5.315-7.885-0.747l-21.823,96.582"/>
	<path style="fill:#484B7F;" d="M334.559,421.937c-32.639,15.919-70.136,22.335-108.165,16.577
		C114.675,421.602,43.841,307.704,78.084,200.026c28.959-91.063,123.71-145.773,218.222-123.389
		c93.356,22.111,153.175,111.557,140.203,204.701c-0.883,6.344-7,10.576-13.233,9.1l0,0c-5.101-1.208-9.596,3.559-8.093,8.581
		l18.485,61.711c1.945,6.492,10.188,8.445,14.838,3.514l44.2-46.864c3.597-3.814,1.717-10.091-3.384-11.298l-1.32-0.312
		c-5.537-1.311-9.11-6.687-8.177-12.301C502.098,159.547,402.362,29.929,256,26.801C167.178,24.902,85.184,75.816,47.391,156.219
		c-64.414,137.04,14.725,289.919,153.61,322.813c53.608,12.697,107.28,5.423,153.202-17c10.957-5.351,14.965-18.94,8.562-29.317
		l-1.862-3.018C355.392,420.762,343.994,417.335,334.559,421.937z"/>
</g>
<g>
	<circle style="fill:#EF487D;" cx="252.771" cy="260.451" r="29.963"/>
	<path style="fill:#EF487D;" d="M252.771,412.764c-5.483,0-9.927-4.444-9.927-9.927v-29.461c0-5.483,4.444-9.927,9.927-9.927
		c5.483,0,9.927,4.444,9.927,9.927v29.461C262.698,408.32,258.254,412.764,252.771,412.764z"/>
	<path style="fill:#EF487D;" d="M252.771,148.533c-5.483,0-9.927-4.444-9.927-9.927v-29.461c0-5.483,4.444-9.927,9.927-9.927
		c5.483,0,9.927,4.444,9.927,9.927v29.461C262.698,144.089,258.254,148.533,252.771,148.533z"/>
	<path style="fill:#EF487D;" d="M326.204,393.093c-3.43,0-6.768-1.781-8.606-4.965l-3.565-6.176
		c-2.741-4.748-1.114-10.819,3.634-13.56c4.75-2.741,10.819-1.113,13.561,3.634l3.565,6.176c2.741,4.748,1.114,10.819-3.634,13.56
		C329.594,392.663,327.887,393.093,326.204,393.093z"/>
	<path style="fill:#EF487D;" d="M182.923,144.923c-3.43,0-6.768-1.781-8.606-4.965l-3.565-6.176
		c-2.741-4.748-1.114-10.819,3.634-13.56c4.75-2.742,10.819-1.113,13.561,3.634l3.565,6.176c2.741,4.748,1.114,10.819-3.634,13.56
		C186.314,144.495,184.606,144.923,182.923,144.923z"/>
	<path style="fill:#EF487D;" d="M379.935,339.343c-1.683,0-3.39-0.428-4.953-1.331l-6.176-3.565
		c-4.748-2.741-6.376-8.812-3.635-13.56c2.741-4.748,8.81-6.376,13.56-3.634l6.176,3.565c4.748,2.741,6.376,8.812,3.635,13.56
		C386.702,337.563,383.366,339.343,379.935,339.343z"/>
	<path style="fill:#EF487D;" d="M131.766,196.063c-1.684,0-3.391-0.428-4.954-1.331l-6.175-3.565
		c-4.748-2.742-6.375-8.813-3.634-13.561c2.742-4.748,8.814-6.375,13.561-3.634l6.175,3.565c4.748,2.742,6.375,8.813,3.634,13.561
		C138.533,194.282,135.196,196.063,131.766,196.063z"/>
	<path style="fill:#EF487D;" d="M399.618,265.918h-29.461c-5.483,0-9.927-4.444-9.927-9.927s4.444-9.927,9.927-9.927h29.461
		c5.483,0,9.927,4.444,9.927,9.927S405.101,265.918,399.618,265.918z"/>
	<path style="fill:#EF487D;" d="M135.387,265.918h-29.461c-5.483,0-9.927-4.444-9.927-9.927s4.444-9.927,9.927-9.927h29.461
		c5.483,0,9.927,4.444,9.927,9.927S140.87,265.918,135.387,265.918z"/>
	<path style="fill:#EF487D;" d="M373.777,196.063c-3.43,0-6.768-1.781-8.606-4.965c-2.741-4.748-1.113-10.819,3.635-13.56
		l6.176-3.565c4.746-2.74,10.819-1.113,13.56,3.634c2.741,4.748,1.113,10.819-3.635,13.56l-6.176,3.565
		C377.167,195.633,375.46,196.063,373.777,196.063z"/>
	<path style="fill:#EF487D;" d="M125.608,339.343c-3.43,0-6.768-1.781-8.606-4.964c-2.741-4.748-1.114-10.819,3.634-13.561
		l6.175-3.565c4.75-2.74,10.819-1.114,13.561,3.634c2.741,4.748,1.114,10.819-3.634,13.561l-6.175,3.565
		C128.999,338.914,127.293,339.343,125.608,339.343z"/>
	<path style="fill:#EF487D;" d="M322.62,144.923c-1.684,0-3.39-0.428-4.954-1.331c-4.748-2.741-6.375-8.812-3.634-13.56l3.565-6.176
		c2.741-4.749,8.811-6.375,13.561-3.634c4.748,2.741,6.375,8.812,3.634,13.56l-3.565,6.176
		C329.387,143.143,326.05,144.923,322.62,144.923z"/>
	<path style="fill:#EF487D;" d="M179.339,393.093c-1.684,0-3.39-0.428-4.954-1.331c-4.748-2.741-6.375-8.812-3.634-13.56
		l3.565-6.176c2.742-4.749,8.81-6.375,13.561-3.634c4.748,2.741,6.375,8.812,3.634,13.56l-3.565,6.176
		C186.107,391.311,182.769,393.093,179.339,393.093z"/>
</g>
<g>
</g>
<g>
</g>
<g>
</g>
<g>
</g>
<g>
</g>
<g>
</g>
<g>
</g>
<g>
</g>
<g>
</g>
<g>
</g>
<g>
</g>
<g>
</g>
<g>
</g>
<g>
</g>
<g>
</g>
</svg>
