<?xml version="1.0" encoding="iso-8859-1"?>
<!-- Generator: Adobe Illustrator 19.0.0, SVG Export Plug-In . SVG Version: 6.00 Build 0)  -->
<svg version="1.1" id="Capa_1" xmlns="http://www.w3.org/2000/svg" xmlns:xlink="http://www.w3.org/1999/xlink" x="0px" y="0px"
	 viewBox="0 0 512 512" style="enable-background:new 0 0 512 512;" xml:space="preserve">
<path style="fill:#343A6E;" d="M512,256c0,54.972-17.335,105.911-46.832,147.634c-26.133,36.958-61.806,66.685-103.445,85.588
	c-17.084,7.753-35.171,13.688-54.011,17.554C291.004,510.203,273.711,512,256,512c-17.721,0-35.015-1.797-51.722-5.224
	c-18.84-3.866-36.927-9.801-54.011-17.565c-41.629-18.902-77.302-48.63-103.434-85.577c-9.603-13.594-17.93-28.17-24.775-43.541
	c-4.368-9.78-8.129-19.884-11.243-30.271C3.772,306.448,0,281.663,0,256C0,114.615,114.615,0,256,0
	c59.737,0,114.678,20.449,158.229,54.742c8.474,6.666,16.509,13.855,24.064,21.525C483.871,122.483,512,185.96,512,256z"/>
<circle style="fill:#484B7F;" cx="256" cy="220.118" r="220.118"/>
<g>
	<path style="fill:#F9DF73;" d="M150.267,362.475v126.736c-41.629-18.902-77.302-48.63-103.434-85.577v-41.159H150.267z"/>
	<path style="fill:#F9DF73;" d="M307.712,256v250.775C291.004,510.203,273.711,512,256,512c-17.721,0-35.015-1.797-51.722-5.224V256
		H307.712z"/>
	<path style="fill:#F9DF73;" d="M465.168,147.759v255.875c-26.133,36.958-61.806,66.685-103.445,85.588V147.759H465.168z"/>
</g>
<path style="fill:#EF487D;" d="M491.999,7.623l-73.176,9.263c-5.523,0.699-8.218,7.115-4.851,11.549l8.648,11.387
	c2.504,3.297,1.735,8.018-1.685,10.35l-6.705,4.571L10.815,329.822c3.114,10.386,6.875,20.49,11.243,30.271L438.293,76.267
	l2.232-1.521c3.182-2.169,7.504-1.465,9.834,1.602l8.223,10.828c3.367,4.433,10.271,3.56,12.427-1.573l28.566-68.004
	C501.731,12.466,497.522,6.923,491.999,7.623z"/>
<g>
</g>
<g>
</g>
<g>
</g>
<g>
</g>
<g>
</g>
<g>
</g>
<g>
</g>
<g>
</g>
<g>
</g>
<g>
</g>
<g>
</g>
<g>
</g>
<g>
</g>
<g>
</g>
<g>
</g>
</svg>
