<?xml version="1.0" encoding="iso-8859-1"?>
<!-- Generator: Adobe Illustrator 19.0.0, SVG Export Plug-In . SVG Version: 6.00 Build 0)  -->
<svg version="1.1" id="Capa_1" xmlns="http://www.w3.org/2000/svg" xmlns:xlink="http://www.w3.org/1999/xlink" x="0px" y="0px"
	 viewBox="0 0 512 512" style="enable-background:new 0 0 512 512;" xml:space="preserve">
<path style="fill:#F2AE5A;" d="M512,256c0,32.037-5.883,62.694-16.624,90.969c-8.934,23.479-21.222,45.307-36.268,64.899
	C412.296,472.754,338.735,512,256,512S99.704,472.754,52.893,411.867c-15.047-19.592-27.335-41.42-36.268-64.899
	C5.883,318.694,0,288.037,0,256C0,114.615,114.615,0,256,0S512,114.615,512,256z"/>
<path style="fill:#F9DF73;" d="M476.092,220.092c0,27.542-5.057,53.9-14.292,78.21c-7.681,20.185-18.245,38.952-31.181,55.795
	C390.373,406.442,327.13,440.184,256,440.184s-134.373-33.742-174.618-86.087c-12.936-16.844-23.501-35.61-31.181-55.795
	c-9.235-24.309-14.292-50.666-14.292-78.21C35.908,98.538,134.446,0,256,0S476.092,98.538,476.092,220.092z"/>
<path style="fill:#484B7F;" d="M491.875,99.673v250.942H20.125V99.673c0-18.359,14.89-33.249,33.249-33.249h405.243
	C476.985,66.424,491.875,81.314,491.875,99.673z"/>
<path style="fill:#F0F0F0;" d="M460.531,99.672v230.045H51.475V99.672c0-1.045,0.846-1.902,1.902-1.902h405.243
	c0.157,0,0.313,0.021,0.46,0.063C459.915,98.031,460.531,98.784,460.531,99.672z"/>
<path style="fill:#A9C7E0;" d="M460.531,310.208v13.949l-25.234-5.883c-1.682-0.397-3.156-1.421-4.117-2.863l-33.468-50.489
	l-32.214,32.695c-1.432,1.463-3.459,2.194-5.496,1.996c-2.038-0.199-3.877-1.306-5.005-3.009l-33.667-50.782l-32.225,30.051
	c-1.442,1.348-3.406,2.006-5.371,1.787c-1.964-0.209-3.741-1.275-4.859-2.905l-32.653-47.47l-32.444,44.492
	c-1.505,2.058-4.033,3.103-6.552,2.706c-2.518-0.397-4.598-2.184-5.392-4.608l-33.081-101.637l-30.616,58.786
	c-1.243,2.382-3.762,3.803-6.437,3.647c-2.675-0.167-5.005-1.881-5.945-4.389l-33.959-90.363l-40.323,48.964v-21.368l37.303-45.296
	c1.536-1.87,3.971-2.779,6.353-2.382c2.393,0.397,4.389,2.038,5.245,4.305l32.737,87.113l31.065-59.643
	c1.264-2.424,3.856-3.856,6.583-3.636c2.727,0.23,5.057,2.069,5.904,4.671l33.97,104.385l30.26-41.503
	c1.306-1.776,3.427-2.811,5.58-2.79c2.205,0.031,4.263,1.128,5.507,2.947l33.625,48.88l32.329-30.145
	c1.463-1.369,3.438-2.017,5.423-1.787c1.985,0.24,3.772,1.337,4.869,2.999l33.468,50.489l32.214-32.695
	c1.442-1.463,3.459-2.194,5.496-1.996c2.038,0.199,3.877,1.306,5.005,3.009l36.603,55.223L460.531,310.208z"/>
<path style="fill:#EF487D;" d="M459.079,97.833L419.3,172.229c-0.899,1.682-2.456,2.905-4.284,3.375
	c-1.839,0.481-3.793,0.167-5.392-0.867l-32.674-21.065l-34.314,47.543c-1.076,1.484-2.696,2.476-4.493,2.748
	c-1.808,0.272-3.647-0.199-5.11-1.296l-30.939-23.343l-34.826,88.837c-0.836,2.121-2.664,3.678-4.89,4.159
	c-2.226,0.481-4.545-0.178-6.175-1.766l-33.771-32.893l-33.395,27.031c-1.745,1.421-4.086,1.881-6.238,1.223l-33.886-10.219
	l-35.203,40.563c-1.264,1.452-3.082,2.299-5.005,2.341c-1.912,0.021-3.772-0.752-5.089-2.152L70.67,261.203l-19.195,22.12v-20.731
	l13.876-15.987c1.264-1.452,3.082-2.299,5.005-2.341c1.923-0.031,3.783,0.752,5.089,2.152l32.946,35.244l33.144-38.191
	c1.755-2.017,4.535-2.821,7.095-2.048l34.649,10.449l35.297-28.557c2.675-2.163,6.552-1.996,9.017,0.408l30.762,29.957
	l34.356-87.646c0.773-1.985,2.435-3.48,4.472-4.054c2.048-0.585,4.242-0.178,5.945,1.108l32.549,24.555l34.032-47.135
	c2.111-2.936,6.154-3.699,9.185-1.735l31.901,20.553l32.904-61.555h14.921C458.776,97.77,458.933,97.791,459.079,97.833z"/>
<rect x="20.125" y="328.161" style="fill:#343A6E;" width="471.751" height="24.773"/>
<path style="fill:#484B7F;" d="M495.376,346.969c-8.934,23.479-21.222,45.307-36.268,64.899c-3.584,0.606-7.272,0.919-11.034,0.919
	H63.927c-3.762,0-7.45-0.313-11.034-0.919c-15.047-19.592-27.335-41.42-36.268-64.899H495.376z"/>
<path style="fill:#343A6E;" d="M299.103,372.614h-86.212c-11.395,0-20.633-9.238-20.633-20.633v-5.018h127.478v5.018
	C319.736,363.377,310.498,372.614,299.103,372.614z"/>
<path style="fill:#EF487D;" d="M152.467,9.388C138.982,3.352,124.035,0,108.304,0C48.485,0,0,48.485,0,108.304
	c0,38.85,20.453,72.926,51.185,92.036c16.579,10.314,36.156,16.268,57.117,16.268c59.812,0,108.304-48.485,108.304-108.304
	C216.606,64.216,190.267,26.285,152.467,9.388z"/>
<path style="fill:#F0F0F0;" d="M190.025,108.304c0,44.517-35.585,80.715-79.856,81.706c-0.619,0.015-1.241,0.02-1.865,0.02
	c-10.37,0-20.291-1.93-29.418-5.459c-4.654-1.799-9.107-4.006-13.305-6.589c-23.402-14.369-39.013-40.194-39.013-69.678
	c0-45.135,36.595-81.726,81.736-81.726c11.178,0,21.829,2.241,31.53,6.308c5.348,2.237,10.404,5.026,15.104,8.299
	c3.504,2.438,6.8,5.142,9.871,8.088C180.344,64.138,190.025,85.092,190.025,108.304z"/>
<path style="fill:#FF668C;" d="M108.304,194.011c-22.896,0-44.421-8.914-60.61-25.102c-16.191-16.188-25.107-37.711-25.107-60.606
	c0-47.26,38.452-85.708,85.717-85.708c47.257,0,85.703,38.448,85.703,85.708c0,22.895-8.915,44.419-25.103,60.606
	C152.716,185.096,131.195,194.011,108.304,194.011z M108.304,30.559c-42.874,0-77.755,34.876-77.755,77.745
	s34.881,77.745,77.755,77.745c42.866,0,77.739-34.876,77.739-77.745C186.043,65.435,151.17,30.559,108.304,30.559z"/>
<g>
	<path style="fill:#343A6E;" d="M108.299,57.77c-2.198,0-3.981-1.783-3.981-3.981V40.257c0-2.198,1.783-3.981,3.981-3.981
		s3.981,1.783,3.981,3.981v13.532C112.281,55.988,110.498,57.77,108.299,57.77z"/>
	<path style="fill:#343A6E;" d="M108.299,180.334c-2.198,0-3.981-1.783-3.981-3.981V162.82c0-2.198,1.783-3.981,3.981-3.981
		s3.981,1.783,3.981,3.981v13.532C112.281,178.551,110.498,180.334,108.299,180.334z"/>
	<path style="fill:#343A6E;" d="M176.346,112.286h-13.532c-2.198,0-3.981-1.783-3.981-3.981c0-2.198,1.783-3.981,3.981-3.981h13.532
		c2.198,0,3.981,1.783,3.981,3.981C180.327,110.503,178.546,112.286,176.346,112.286z"/>
	<path style="fill:#343A6E;" d="M53.784,112.286H40.253c-2.198,0-3.981-1.783-3.981-3.981c0-2.198,1.783-3.981,3.981-3.981h13.531
		c2.198,0,3.981,1.783,3.981,3.981C57.765,110.503,55.982,112.286,53.784,112.286z"/>
</g>
<g>
	<path style="fill:#484B7F;" d="M155.512,85.028c-1.66,0-3.191-1.076-3.748-2.64c-0.557-1.565-0.067-3.365,1.223-4.418
		c1.309-1.07,3.189-1.187,4.626-0.302c1.42,0.875,2.151,2.623,1.783,4.248C158.99,83.71,157.356,85.028,155.512,85.028z"/>
	<path style="fill:#484B7F;" d="M61.089,139.545c-1.596,0-3.068-0.988-3.679-2.461c-0.645-1.554-0.216-3.406,1.052-4.514
		c1.257-1.097,3.095-1.295,4.557-0.488c1.443,0.796,2.264,2.473,2,4.101C64.711,138.091,63.027,139.545,61.089,139.545z"/>
	<path style="fill:#484B7F;" d="M135.558,65.073c-1.669,0-3.18-1.073-3.745-2.639c-0.556-1.539-0.079-3.32,1.169-4.376
		c1.307-1.105,3.221-1.242,4.676-0.344c1.393,0.86,2.123,2.555,1.801,4.159C139.09,63.711,137.433,65.073,135.558,65.073z"/>
	<path style="fill:#484B7F;" d="M81.04,159.496c-1.643,0-3.143-1.043-3.723-2.577c-0.608-1.61-0.08-3.497,1.284-4.551
		c1.263-0.975,3.023-1.099,4.409-0.31c1.471,0.837,2.267,2.574,1.934,4.237C84.577,158.135,82.916,159.496,81.04,159.496z"/>
	<path style="fill:#484B7F;" d="M81.04,65.073c-1.64,0-3.145-1.044-3.723-2.579c-0.589-1.564-0.114-3.398,1.179-4.465
		c1.232-1.017,3.01-1.201,4.42-0.447c1.489,0.796,2.327,2.491,2.053,4.159C84.657,63.641,82.961,65.073,81.04,65.073z"/>
	<path style="fill:#484B7F;" d="M135.558,159.496c-1.619,0-3.103-1.012-3.699-2.515c-0.625-1.577-0.156-3.446,1.156-4.528
		c1.233-1.018,3.008-1.199,4.42-0.447c1.515,0.807,2.36,2.568,2.033,4.257C139.108,158.117,137.448,159.496,135.558,159.496z"/>
	<path style="fill:#484B7F;" d="M61.089,85.028c-1.661,0-3.184-1.071-3.745-2.633c-0.563-1.567-0.071-3.369,1.218-4.424
		c1.256-1.029,3.048-1.179,4.465-0.395c1.449,0.801,2.263,2.489,1.987,4.122C64.695,83.592,63.015,85.028,61.089,85.028z"/>
	<path style="fill:#484B7F;" d="M155.512,139.545c-1.618,0-3.108-1.019-3.703-2.52c-0.623-1.57-0.158-3.403,1.127-4.495
		c1.303-1.108,3.224-1.251,4.676-0.348c1.433,0.89,2.157,2.646,1.773,4.286C158.971,138.246,157.341,139.545,155.512,139.545z"/>
	<path style="fill:#484B7F;" d="M126.032,112.286h-17.733c-2.198,0-3.981-1.783-3.981-3.981V79.878c0-2.198,1.783-3.981,3.981-3.981
		s3.981,1.783,3.981,3.981v24.444h13.752c2.198,0,3.981,1.783,3.981,3.981C130.014,110.502,128.231,112.286,126.032,112.286z"/>
</g>
<path style="fill:#EF487D;" d="M117.162,108.304c0,4.83-3.861,8.756-8.663,8.864c-0.067,0.002-0.135,0.002-0.203,0.002
	c-1.125,0-2.202-0.209-3.191-0.592c-0.505-0.195-0.988-0.435-1.443-0.715c-2.539-1.559-4.233-4.36-4.233-7.559
	c0-4.896,3.971-8.866,8.867-8.866c1.213,0,2.368,0.243,3.421,0.684c0.58,0.242,1.128,0.545,1.638,0.901
	c0.38,0.264,0.738,0.558,1.071,0.878C116.112,103.512,117.162,105.785,117.162,108.304z"/>
<g>
</g>
<g>
</g>
<g>
</g>
<g>
</g>
<g>
</g>
<g>
</g>
<g>
</g>
<g>
</g>
<g>
</g>
<g>
</g>
<g>
</g>
<g>
</g>
<g>
</g>
<g>
</g>
<g>
</g>
</svg>
