<?xml version="1.0" encoding="iso-8859-1"?>
<!-- Generator: Adobe Illustrator 19.0.0, SVG Export Plug-In . SVG Version: 6.00 Build 0)  -->
<svg version="1.1" id="Capa_1" xmlns="http://www.w3.org/2000/svg" xmlns:xlink="http://www.w3.org/1999/xlink" x="0px" y="0px"
	 viewBox="0 0 512 512" style="enable-background:new 0 0 512 512;" xml:space="preserve">
<path style="fill:#F9DF73;" d="M512,256c0,40.03-9.185,77.908-25.579,111.658c-1.264,2.602-2.57,5.183-3.918,7.743
	c-5.371,10.188-11.421,19.947-18.066,29.257c-6.834,9.571-14.315,18.651-22.382,27.167c-20.135,21.316-43.907,39.173-70.322,52.59
	c-12.737,6.457-26.081,11.891-39.926,16.175C307.848,508.008,282.394,512,256,512s-51.858-3.992-75.818-11.41
	c-13.845-4.284-27.188-9.718-39.915-16.185c-26.415-13.406-50.186-31.263-70.322-52.579c-8.067-8.526-15.548-17.596-22.382-27.167
	c-6.646-9.3-12.685-19.08-18.056-29.257c-1.358-2.57-2.675-5.162-3.939-7.774C9.174,333.887,0,296.02,0,256
	c0-40.03,9.185-77.908,25.569-111.658C45.505,103.278,76.1,68.336,113.758,43.123C154.436,15.882,203.358,0,256,0
	s101.564,15.882,142.242,43.123c37.648,25.213,68.242,60.134,88.179,101.198C502.805,178.072,512,215.97,512,256z"/>
<g>
	<path style="fill:#EF487D;" d="M220.912,405.703l-40.73,94.887c-13.845-4.284-27.188-9.718-39.915-16.185l33.782-78.702H220.912z"
		/>
	<path style="fill:#EF487D;" d="M371.733,484.415c-12.737,6.457-26.081,11.891-39.926,16.175l-40.73-94.887h46.864L371.733,484.415z
		"/>
</g>
<path style="fill:#F0F0F0;" d="M486.421,43.123v324.535c-1.264,2.602-2.57,5.183-3.918,7.743
	c-5.371,10.188-11.421,19.947-18.066,29.257H47.564c-6.646-9.3-12.685-19.08-18.056-29.257c-1.358-2.57-2.675-5.162-3.939-7.774
	V43.123H486.421z"/>
<rect x="25.57" y="43.123" style="fill:#D4D4D4;" width="460.852" height="50.155"/>
<path style="fill:#EF487D;" d="M501.603,30.783v28.86c0,7.607-6.165,13.782-13.782,13.782H24.168
	c-7.607,0-13.782-6.175-13.782-13.782v-28.86C10.386,23.176,16.562,17,24.168,17h463.653C495.438,17,501.603,23.176,501.603,30.783z
	"/>
<g>
	<path style="fill:#FF668C;" d="M501.603,30.783v13.187c0,7.607-6.165,13.782-13.782,13.782H24.168
		c-7.607,0-13.782-6.175-13.782-13.782V30.783C10.386,23.176,16.562,17,24.168,17h463.653C495.438,17,501.603,23.176,501.603,30.783
		z"/>
	<path style="fill:#FF668C;" d="M482.503,375.4c-3.009,5.705-6.228,11.285-9.665,16.718c-8.944,14.242-19.268,27.544-30.783,39.706
		H69.945c-11.515-12.173-21.838-25.464-30.783-39.706c-3.427-5.434-6.646-11.013-9.655-16.718H482.503z"/>
</g>
<g>
	<path style="fill:#EF487D;" d="M180.769,345.101c-2.675,0-5.348-1.02-7.388-3.06l-48.764-48.764c-4.08-4.08-4.08-10.697,0-14.777
		c4.081-4.08,10.696-4.08,14.778,0l48.764,48.764c4.08,4.08,4.08,10.697,0,14.777C186.117,344.08,183.444,345.101,180.769,345.101z"
		/>
	<path style="fill:#EF487D;" d="M132.005,345.101c-2.675,0-5.348-1.02-7.388-3.06c-4.08-4.08-4.08-10.697,0-14.777l48.764-48.764
		c4.081-4.08,10.696-4.08,14.778,0c4.08,4.08,4.08,10.697,0,14.777l-48.764,48.764C137.353,344.08,134.68,345.101,132.005,345.101z"
		/>
</g>
<g>
	<path style="fill:#9FC5E6;" d="M364.669,335.694c-23.046,0-41.796-18.75-41.796-41.796c0-23.046,18.75-41.796,41.796-41.796
		s41.796,18.75,41.796,41.796C406.465,316.945,387.716,335.694,364.669,335.694z M364.669,273c-11.523,0-20.898,9.375-20.898,20.898
		c0,11.523,9.375,20.898,20.898,20.898s20.898-9.375,20.898-20.898C385.567,282.375,376.193,273,364.669,273z"/>
	<path style="fill:#9FC5E6;" d="M175.569,184.489c-23.046,0-41.796-18.75-41.796-41.796s18.75-41.796,41.796-41.796
		s41.796,18.75,41.796,41.796S198.615,184.489,175.569,184.489z M175.569,121.795c-11.523,0-20.898,9.375-20.898,20.898
		s9.375,20.898,20.898,20.898s20.898-9.375,20.898-20.898S187.093,121.795,175.569,121.795z"/>
</g>
<path style="fill:#484B7F;" d="M449.086,155.43l-30.52-30.52c-3.427-3.427-9.287-1-9.287,3.847v8.071
	c0,6.298-5,11.496-11.296,11.653c-64.83,1.613-112.64,26.042-142.211,47.341c-35.242,25.385-52.698,51.517-53.424,52.617
	c-3.174,4.811-1.849,11.275,2.956,14.458c1.773,1.174,3.775,1.737,5.755,1.737c3.385,0,6.708-1.642,8.722-4.67
	c0.161-0.242,16.51-24.534,48.91-47.69c38.078-27.214,81.268-41.596,128.66-42.892c6.541-0.179,11.928,5.119,11.928,11.662v10.505
	c0,4.846,5.86,7.274,9.287,3.847l30.52-30.52C451.694,162.265,451.694,158.038,449.086,155.43z"/>
<path style="fill:#EF487D;" d="M482.503,375.4c-3.009,5.705-6.228,11.285-9.665,16.718H39.163
	c-3.427-5.434-6.646-11.013-9.655-16.718H482.503z"/>
<g>
</g>
<g>
</g>
<g>
</g>
<g>
</g>
<g>
</g>
<g>
</g>
<g>
</g>
<g>
</g>
<g>
</g>
<g>
</g>
<g>
</g>
<g>
</g>
<g>
</g>
<g>
</g>
<g>
</g>
</svg>
