<?xml version="1.0" encoding="iso-8859-1"?>
<!-- Generator: Adobe Illustrator 19.0.0, SVG Export Plug-In . SVG Version: 6.00 Build 0)  -->
<svg version="1.1" id="Capa_1" xmlns="http://www.w3.org/2000/svg" xmlns:xlink="http://www.w3.org/1999/xlink" x="0px" y="0px"
	 viewBox="0 0 512 512" style="enable-background:new 0 0 512 512;" xml:space="preserve">
<path style="fill:#343A6E;" d="M512,256c0,36.321-7.565,70.875-21.201,102.17c-6.081,13.96-13.375,27.282-21.744,39.811
	c-3.041,4.556-6.228,9.017-9.571,13.364c-3.762,4.921-7.711,9.707-11.807,14.346c-9.289,10.491-19.425,20.208-30.313,29.048
	c-3.856,3.135-7.795,6.165-11.828,9.059c-11.18,8.067-23.04,15.245-35.485,21.441c-4.765,2.382-9.613,4.618-14.545,6.698
	C324.921,504.863,291.297,512,256,512c-35.412,0-69.151-7.189-99.819-20.187c-17.795-7.544-34.555-17.042-50.019-28.233
	c-4.033-2.905-7.983-5.935-11.839-9.091c-10.846-8.84-20.95-18.557-30.198-29.038c-7.67-8.662-14.744-17.836-21.18-27.47
	c-2.873-4.294-5.622-8.694-8.234-13.176c-5.12-8.788-9.749-17.91-13.814-27.324C7.45,326.363,0,292.049,0,256
	C0,114.615,114.615,0,256,0S512,114.615,512,256z"/>
<path style="fill:#484B7F;" d="M466.229,210.229c0,29.827-6.213,58.204-17.41,83.903c-4.994,11.465-10.984,22.405-17.856,32.693
	c-2.497,3.741-5.114,7.405-7.86,10.975c-3.089,4.042-6.333,7.972-9.697,11.781c-7.628,8.615-15.951,16.595-24.893,23.855
	c-3.166,2.575-6.401,5.063-9.713,7.44c-9.182,6.625-18.921,12.519-29.14,17.608c-3.913,1.956-7.894,3.793-11.944,5.5
	c-25.116,10.614-52.729,16.475-81.715,16.475c-29.081,0-56.788-5.904-81.972-16.578c-14.613-6.195-28.376-13.995-41.076-23.185
	c-3.312-2.385-6.556-4.874-9.722-7.466c-8.907-7.259-17.204-15.24-24.799-23.846c-6.299-7.114-12.107-14.647-17.393-22.559
	c-2.359-3.527-4.616-7.139-6.762-10.82c-4.205-7.216-8.006-14.708-11.343-22.439c-11.044-25.554-17.161-53.733-17.161-83.337
	C45.771,94.122,139.893,0,256,0S466.229,94.122,466.229,210.229z"/>
<g>
	<rect x="76.581" y="243.242" style="fill:#823728;" width="47.334" height="35.798"/>
	<path style="fill:#823728;" d="M156.186,207.234c0,26.751-18.778,49.116-43.873,54.633c-3.887,0.856-7.928,1.31-12.07,1.31
		c-30.893,0-55.943-25.049-55.943-55.943S69.35,151.3,100.243,151.3c4.142,0,8.183,0.456,12.07,1.31
		C137.408,158.126,156.186,180.481,156.186,207.234z"/>
</g>
<path style="fill:#965845;" d="M156.186,207.234c0,26.751-18.778,49.116-43.873,54.633c-25.095-5.516-43.873-27.88-43.873-54.633
	c0-26.751,18.778-49.107,43.873-54.623C137.408,158.126,156.186,180.481,156.186,207.234z"/>
<path style="fill:#FF668C;" d="M179.587,342.518v72.767c0,12.936-10.47,23.416-23.395,23.416h-0.01v53.112
	c-46.299-19.623-85.619-52.485-113.236-93.832c-8.505-12.737-15.903-26.29-22.047-40.5v-14.963
	c0-34.105,21.514-63.164,51.702-74.386c8.61-3.208,17.92-4.953,27.648-4.953C144.06,263.178,179.587,298.694,179.587,342.518z"/>
<path style="fill:#EF487D;" d="M34.712,384.805c-5.12-8.788-9.749-17.91-13.814-27.324v-14.963
	c0-34.105,21.514-63.164,51.702-74.386l5.663,10.313C56.007,285.288,33.761,317.889,34.712,384.805z"/>
<path style="fill:#484B7F;" d="M179.587,397.981v17.304c0,12.936-10.47,23.416-23.395,23.416h-0.01v53.112
	c-46.299-19.623-85.619-52.485-113.236-93.832H179.587z"/>
<rect x="57.626" y="397.981" style="fill:#EF487D;" width="87.385" height="13.957"/>
<path style="fill:#965845;" d="M66.163,397.981v18.077c0,3.354-0.731,6.531-2.038,9.394c-7.67-8.662-14.744-17.836-21.18-27.47
	L66.163,397.981L66.163,397.981z"/>
<path style="fill:#823728;" d="M134.322,397.981h45.267v18.081c0,12.5-10.133,22.634-22.634,22.634l0,0
	c-12.5,0-22.634-10.133-22.634-22.634L134.322,397.981L134.322,397.981z"/>
<path style="fill:#965845;" d="M179.589,397.981v18.077c0,10.068-6.563,18.596-15.647,21.536c-3.441-1.111-6.526-3.022-9.03-5.525
	c-4.096-4.096-6.635-9.757-6.635-16.011v-18.077H179.589z"/>
<polygon style="fill:#F0F0F0;" points="100.243,293.305 124.652,272.976 100.243,263.175 75.835,272.976 "/>
<g>
	<polygon style="fill:#EF487D;" points="100.243,263.175 74.62,295.428 57.023,265.087 	"/>
	<polygon style="fill:#EF487D;" points="100.243,263.175 125.866,295.428 143.464,265.087 	"/>
</g>
<polygon style="fill:#F0F0F0;" points="100.243,376.438 119.798,359.751 100.243,284.202 80.689,359.751 "/>
<g>
	<path style="fill:#EF487D;" d="M61.898,316.667L61.898,316.667c2.357,0,4.268,1.911,4.268,4.268v77.046H57.63v-77.046
		C57.629,318.578,59.54,316.667,61.898,316.667z"/>
	<path style="fill:#EF487D;" d="M138.589,316.667L138.589,316.667c2.357,0,4.268,1.911,4.268,4.268v77.046h-8.536v-77.046
		C134.322,318.578,136.232,316.667,138.589,316.667z"/>
</g>
<path style="fill:#343A6E;" d="M106.162,438.032v25.548c-4.033-2.905-7.983-5.935-11.839-9.091v-16.457
	c0-3.271,2.654-5.914,5.925-5.914C103.508,432.118,106.162,434.761,106.162,438.032z"/>
<path style="fill:#5897D1;" d="M177.98,127.505c0,28.39-23.02,51.41-51.41,51.41H51.94c0-28.39,23.02-51.41,51.419-51.41H177.98z"/>
<path style="fill:#9FC5E6;" d="M177.98,127.505c0,28.39-23.02,51.41-51.41,51.41H63.308c0-28.39,23.02-51.41,51.419-51.41H177.98z"
	/>
<g>
	<rect x="387.783" y="243.242" style="fill:#E5A379;" width="47.334" height="35.798"/>
	<path style="fill:#E5A379;" d="M467.393,207.234c0,26.751-18.778,49.116-43.873,54.633c-3.887,0.856-7.928,1.31-12.07,1.31
		c-30.893,0-55.943-25.049-55.943-55.943s25.049-55.933,55.943-55.933c4.142,0,8.183,0.456,12.07,1.31
		C448.615,158.126,467.393,180.481,467.393,207.234z"/>
</g>
<path style="fill:#F9D5A9;" d="M467.393,207.234c0,26.751-18.778,49.116-43.873,54.633c-25.095-5.516-43.873-27.88-43.873-54.633
	c0-26.751,18.778-49.107,43.873-54.623C448.615,158.126,467.393,180.481,467.393,207.234z"/>
<path style="fill:#9FC5E6;" d="M490.799,342.518v15.653c-6.081,13.96-13.375,27.282-21.744,39.811
	c-27.679,41.441-67.114,74.355-113.549,93.957V438.7c-5.81,0-11.139-2.132-15.235-5.653c-0.616-0.522-1.212-1.097-1.776-1.693
	c-3.96-4.19-6.384-9.832-6.384-16.071v-72.767c0-34.105,21.504-63.164,51.702-74.386c8.61-3.208,17.92-4.953,27.638-4.953
	C455.272,263.178,490.799,298.694,490.799,342.518z"/>
<path style="fill:#5897D1;" d="M346.388,397.981c0.956,17.076-1.592,28.162-6.117,35.071c-0.619-0.528-1.211-1.101-1.775-1.693
	c-3.959-4.196-6.39-9.84-6.39-16.075v-72.764c0-34.107,21.509-63.17,51.702-74.394l5.661,10.313
	C365.803,285.722,342.136,322.132,346.388,397.981z"/>
<path style="fill:#484B7F;" d="M469.055,397.981c-27.679,41.441-67.114,74.355-113.549,93.957V438.7
	c-6.698,0-12.748-2.832-17.011-7.346v-33.374L469.055,397.981L469.055,397.981z"/>
<path style="fill:#343A6E;" d="M370.051,414.365v70.875c-4.765,2.382-9.613,4.618-14.545,6.698V438.7
	c-6.698,0-12.748-2.832-17.011-7.346v-16.99H370.051z"/>
<rect x="368.839" y="397.981" style="fill:#5897D1;" width="87.385" height="13.957"/>
<path style="fill:#E5A379;" d="M377.372,397.981v18.077c0,10.068-6.563,18.596-15.647,21.536c-2.193,0.719-4.542,1.101-6.982,1.101
	c-6.254,0-11.915-2.531-16.011-6.627c-4.096-4.096-6.627-9.757-6.627-16.011v-18.077L377.372,397.981L377.372,397.981z"/>
<path style="fill:#F9D5A9;" d="M377.372,397.981v18.077c0,10.068-6.563,18.596-15.647,21.536c-3.441-1.111-6.526-3.022-9.03-5.525
	c-4.096-4.096-6.635-9.757-6.635-16.011v-18.077H377.372z"/>
<path style="fill:#E5A379;" d="M469.055,397.981c-3.041,4.556-6.228,9.017-9.571,13.364c-3.762,4.921-7.711,9.707-11.807,14.346
	c-1.39-2.926-2.152-6.186-2.152-9.634v-18.077L469.055,397.981L469.055,397.981z"/>
<path style="fill:#F9D5A9;" d="M469.055,397.981c-3.041,4.556-6.228,9.017-9.571,13.364v-13.364H469.055z"/>
<polygon style="fill:#484B7F;" points="411.451,293.305 435.859,272.976 411.451,263.175 387.042,272.976 "/>
<g>
	<polygon style="fill:#5897D1;" points="411.451,263.175 385.828,295.428 368.23,265.087 	"/>
	<polygon style="fill:#5897D1;" points="411.451,263.175 437.073,295.428 454.672,265.087 	"/>
</g>
<polygon style="fill:#484B7F;" points="411.451,376.438 431.005,359.751 411.451,284.202 391.896,359.751 "/>
<g>
	<path style="fill:#5897D1;" d="M373.105,316.667L373.105,316.667c2.357,0,4.268,1.911,4.268,4.268v77.046h-8.536v-77.046
		C368.836,318.578,370.748,316.667,373.105,316.667z"/>
	<path style="fill:#5897D1;" d="M449.796,316.667L449.796,316.667c2.357,0,4.268,1.911,4.268,4.268v77.046h-8.536v-77.046
		C445.529,318.578,447.439,316.667,449.796,316.667z"/>
</g>
<path style="fill:#343A6E;" d="M417.364,438.032v16.708c-3.856,3.135-7.795,6.165-11.828,9.059v-25.767
	c0-3.271,2.644-5.914,5.914-5.914S417.364,434.761,417.364,438.032z"/>
<path style="fill:#EF487D;" d="M489.187,127.505c0,28.39-23.02,51.41-51.41,51.41h-74.63c0-28.39,23.02-51.41,51.419-51.41H489.187z
	"/>
<path style="fill:#FF668C;" d="M489.187,127.505c0,28.39-23.02,51.41-51.41,51.41h-63.261c0-28.39,23.02-51.41,51.419-51.41H489.187
	z"/>
<g>
	<rect x="227.694" y="300.711" style="fill:#E5A654;" width="56.592" height="42.808"/>
	<path style="fill:#E5A654;" d="M322.884,257.655c0,31.986-22.453,58.727-52.458,65.323c-4.648,1.023-9.479,1.567-14.431,1.567
		c-36.938,0-66.89-29.951-66.89-66.89s29.951-66.879,66.89-66.879c4.952,0,9.784,0.544,14.431,1.567
		C300.431,198.939,322.884,225.669,322.884,257.655z"/>
</g>
<path style="fill:#F9C682;" d="M322.884,257.655c0,31.986-22.453,58.727-52.458,65.323c-30.005-6.595-52.458-33.336-52.458-65.323
	s22.453-58.716,52.458-65.312C300.431,198.939,322.884,225.669,322.884,257.655z"/>
<path style="fill:#F0F0F0;" d="M350.866,419.412v74.439c-10.188,4.065-20.689,7.492-31.472,10.24
	C299.123,509.252,277.88,512,256,512c-19.884,0-39.236-2.267-57.814-6.562c-12.737-2.936-25.119-6.823-37.063-11.598v-74.428
	c0-40.772,25.715-75.525,61.816-88.942c10.303-3.835,21.431-5.925,33.061-5.925C308.391,324.545,350.866,367.01,350.866,419.412z"/>
<path style="fill:#D4D4D4;" d="M178.194,485.732c0.293,5.204,0.313,9.947,0.084,14.252c-0.157-0.042-0.313-0.094-0.47-0.146
	c-5.653-1.808-11.212-3.814-16.687-5.998v-74.428c0-40.772,25.715-75.525,61.816-88.942l6.771,12.33
	C201.411,351.505,173.116,395.035,178.194,485.732z"/>
<path style="fill:#FF668C;" d="M319.394,494.519v9.571C299.123,509.252,277.88,512,256,512c-19.884,0-39.236-2.267-57.814-6.562
	v-10.919H319.394z"/>
<rect x="205.04" y="485.731" style="fill:#D4D4D4;" width="104.479" height="16.688"/>
<path style="fill:#E5A654;" d="M215.246,485.732v21.608c0,0.481-0.01,0.961-0.042,1.432c-12.81-2.048-25.297-5.057-37.397-8.934
	c-5.653-1.808-11.212-3.814-16.687-5.998v-8.108H215.246z"/>
<path style="fill:#F9C682;" d="M215.246,485.732v21.608c0,0.481-0.01,0.961-0.042,1.432c-12.81-2.048-25.297-5.057-37.397-8.934
	v-14.106H215.246z"/>
<path style="fill:#E5A654;" d="M350.863,485.732v8.119c-12.058,4.807-24.566,8.735-37.439,11.682
	c-5.486,1.254-11.045,2.33-16.656,3.229c-0.021-0.47-0.031-0.94-0.031-1.411v-21.619L350.863,485.732L350.863,485.732z"/>
<path style="fill:#F9C682;" d="M350.863,485.732v8.119c-12.058,4.807-24.566,8.735-37.439,11.682v-19.801L350.863,485.732
	L350.863,485.732z"/>
<polygon style="fill:#EF487D;" points="255.994,360.57 285.179,336.264 255.994,324.545 226.808,336.264 "/>
<g>
	<polygon style="fill:#D4D4D4;" points="255.994,324.545 225.356,363.109 204.315,326.832 	"/>
	<polygon style="fill:#D4D4D4;" points="255.994,324.545 286.63,363.109 307.672,326.832 	"/>
</g>
<polygon style="fill:#EF487D;" points="255.994,459.972 279.374,440.019 255.994,349.686 232.612,440.019 "/>
<g>
	<path style="fill:#D4D4D4;" d="M210.144,388.505L210.144,388.505c2.818,0,5.103,2.285,5.103,5.103v92.122H205.04v-92.122
		C205.04,390.789,207.326,388.505,210.144,388.505z"/>
	<path style="fill:#D4D4D4;" d="M301.843,388.505L301.843,388.505c2.818,0,5.103,2.285,5.103,5.103v92.122H296.74v-92.122
		C296.74,390.789,299.025,388.505,301.843,388.505z"/>
	<path style="fill:#D4D4D4;" d="M348.942,162.325c0,33.946-27.525,61.47-61.47,61.47h-89.234c0-33.946,27.525-61.47,61.481-61.47
		H348.942z"/>
</g>
<path style="fill:#F0F0F0;" d="M348.942,162.325c0,33.946-27.525,61.47-61.47,61.47h-75.64c0-33.946,27.525-61.47,61.481-61.47
	H348.942z"/>
<g>
	<path style="fill:#F9DF73;" d="M266.177,6.327l10.418,21.108c1.653,3.35,4.848,5.672,8.545,6.209l23.294,3.384
		c9.309,1.353,13.026,12.793,6.29,19.359l-16.855,16.43c-2.675,2.607-3.895,6.364-3.264,10.046l3.979,23.2
		c1.59,9.271-8.141,16.341-16.468,11.964l-20.834-10.954c-3.306-1.739-7.257-1.739-10.563,0l-20.834,10.954
		c-8.326,4.377-18.058-2.693-16.468-11.964l3.979-23.2c0.631-3.681-0.589-7.439-3.264-10.046l-16.855-16.43
		c-6.736-6.566-3.019-18.006,6.29-19.359l23.294-3.384c3.697-0.537,6.892-2.859,8.545-6.209l10.418-21.108
		C249.986-2.109,262.014-2.109,266.177,6.327z"/>
	<path style="fill:#F9DF73;" d="M128.206,15.449l8.233,16.681c1.306,2.647,3.832,4.482,6.753,4.907l18.408,2.675
		c7.357,1.069,10.294,10.109,4.971,15.298l-13.32,12.984c-2.114,2.061-3.078,5.029-2.58,7.939l3.144,18.334
		c1.257,7.327-6.433,12.914-13.014,9.455l-16.465-8.656c-2.613-1.374-5.734-1.374-8.348,0l-16.466,8.656
		c-6.58,3.46-14.27-2.128-13.014-9.455l3.144-18.334c0.499-2.91-0.466-5.879-2.58-7.939L73.755,55.01
		c-5.324-5.189-2.385-14.229,4.971-15.298l18.408-2.675c2.922-0.424,5.447-2.259,6.753-4.907l8.233-16.681
		C115.41,8.783,124.917,8.783,128.206,15.449z"/>
	<path style="fill:#F9DF73;" d="M399.879,15.449l8.233,16.681c1.306,2.647,3.832,4.482,6.753,4.907l18.408,2.675
		c7.357,1.069,10.294,10.109,4.971,15.298l-13.32,12.984c-2.114,2.061-3.078,5.029-2.58,7.939l3.144,18.334
		c1.257,7.327-6.433,12.914-13.014,9.455l-16.465-8.656c-2.613-1.374-5.734-1.374-8.348,0l-16.465,8.656
		c-6.58,3.46-14.27-2.128-13.014-9.455l3.144-18.334c0.499-2.91-0.466-5.879-2.58-7.939l-13.32-12.984
		c-5.324-5.189-2.385-14.229,4.971-15.298l18.408-2.675c2.922-0.424,5.447-2.259,6.753-4.907l8.233-16.681
		C387.083,8.783,396.59,8.783,399.879,15.449z"/>
</g>
<g>
</g>
<g>
</g>
<g>
</g>
<g>
</g>
<g>
</g>
<g>
</g>
<g>
</g>
<g>
</g>
<g>
</g>
<g>
</g>
<g>
</g>
<g>
</g>
<g>
</g>
<g>
</g>
<g>
</g>
</svg>
