<?xml version="1.0" encoding="iso-8859-1"?>
<!-- Generator: Adobe Illustrator 19.0.0, SVG Export Plug-In . SVG Version: 6.00 Build 0)  -->
<svg version="1.1" id="Capa_1" xmlns="http://www.w3.org/2000/svg" xmlns:xlink="http://www.w3.org/1999/xlink" x="0px" y="0px"
	 viewBox="0 0 512 512" style="enable-background:new 0 0 512 512;" xml:space="preserve">
<circle style="fill:#484B7F;" cx="255.452" cy="256.409" r="255.452"/>
<circle style="fill:#F0F0F0;" cx="255.452" cy="256.409" r="217.77"/>
<path style="fill:#FF668C;" d="M255.452,422.038c-91.331,0-165.634-74.303-165.634-165.634S164.121,90.771,255.452,90.771
	s165.633,74.303,165.633,165.634S346.782,422.038,255.452,422.038z"/>
<path style="fill:#F0F0F0;" d="M255.452,369.905c-62.585,0-113.501-50.916-113.501-113.501s50.916-113.501,113.501-113.501
	c62.584,0,113.5,50.916,113.5,113.501S318.036,369.905,255.452,369.905z"/>
<path style="fill:#FF668C;" d="M255.452,317.772c-33.838,0-61.368-27.529-61.368-61.368s27.529-61.368,61.368-61.368
	s61.367,27.529,61.367,61.368C316.819,290.243,289.29,317.772,255.452,317.772z"/>
<path style="fill:#9FC5E6;" d="M465.661,66.431L265.049,267.042c-5.509,5.509-14.442,5.509-19.951,0l0,0
	c-5.509-5.509-5.509-14.442,0-19.951L445.709,46.479L465.661,66.431z"/>
<path style="fill:#5897D1;" d="M465.661,66.431L265.049,267.042c-5.509,5.509-14.442,5.509-19.951,0l0,0L455.685,56.455
	L465.661,66.431z"/>
<polygon style="fill:#FF668C;" points="350.457,77.372 427.688,0.14 445.709,46.479 368.477,123.711 "/>
<g>
	<polygon style="fill:#EF487D;" points="367.834,59.995 379.419,48.41 397.439,94.749 385.855,106.334 	"/>
	<polygon style="fill:#EF487D;" points="396.152,31.676 407.737,20.091 425.757,66.431 414.172,78.015 	"/>
	<polygon style="fill:#EF487D;" points="465.661,66.431 388.429,143.663 434.768,161.683 512,84.451 	"/>
</g>
<g>
	<polygon style="fill:#FF668C;" points="445.709,86.382 434.125,97.967 480.464,115.988 492.049,104.403 	"/>
	<polygon style="fill:#FF668C;" points="417.391,114.701 405.806,126.286 452.145,144.306 463.73,132.721 	"/>
</g>
<g>
</g>
<g>
</g>
<g>
</g>
<g>
</g>
<g>
</g>
<g>
</g>
<g>
</g>
<g>
</g>
<g>
</g>
<g>
</g>
<g>
</g>
<g>
</g>
<g>
</g>
<g>
</g>
<g>
</g>
</svg>
